<svg id="visual" viewBox="0 0 900 600" width="900" height="600" xmlns="http://www.w3.org/2000/svg" xmlns:xlink="http://www.w3.org/1999/xlink" version="1.1"><path d="M0 374L21.5 378C43 382 86 390 128.8 386C171.7 382 214.3 366 257.2 368.7C300 371.3 343 392.7 385.8 407.5C428.7 422.3 471.3 430.7 514.2 420.5C557 410.3 600 381.7 642.8 372.5C685.7 363.3 728.3 373.7 771.2 383.7C814 393.7 857 403.3 878.5 408.2L900 413L900 601L878.5 601C857 601 814 601 771.2 601C728.3 601 685.7 601 642.8 601C600 601 557 601 514.2 601C471.3 601 428.7 601 385.8 601C343 601 300 601 257.2 601C214.3 601 171.7 601 128.8 601C86 601 43 601 21.5 601L0 601Z" fill="#00b4d8"></path><path d="M0 453L21.5 453.3C43 453.7 86 454.3 128.8 457C171.7 459.7 214.3 464.3 257.2 459.3C300 454.3 343 439.7 385.8 435.2C428.7 430.7 471.3 436.3 514.2 440.8C557 445.3 600 448.7 642.8 448.2C685.7 447.7 728.3 443.3 771.2 444.2C814 445 857 451 878.5 454L900 457L900 601L878.5 601C857 601 814 601 771.2 601C728.3 601 685.7 601 642.8 601C600 601 557 601 514.2 601C471.3 601 428.7 601 385.8 601C343 601 300 601 257.2 601C214.3 601 171.7 601 128.8 601C86 601 43 601 21.5 601L0 601Z" fill="#008ab3"></path><path d="M0 441L21.5 447C43 453 86 465 128.8 476C171.7 487 214.3 497 257.2 496.3C300 495.7 343 484.3 385.8 473.3C428.7 462.3 471.3 451.7 514.2 451.7C557 451.7 600 462.3 642.8 463.7C685.7 465 728.3 457 771.2 462.3C814 467.7 857 486.3 878.5 495.7L900 505L900 601L878.5 601C857 601 814 601 771.2 601C728.3 601 685.7 601 642.8 601C600 601 557 601 514.2 601C471.3 601 428.7 601 385.8 601C343 601 300 601 257.2 601C214.3 601 171.7 601 128.8 601C86 601 43 601 21.5 601L0 601Z" fill="#0a638c"></path><path d="M0 491L21.5 492.3C43 493.7 86 496.3 128.8 501.3C171.7 506.3 214.3 513.7 257.2 514.8C300 516 343 511 385.8 505.2C428.7 499.3 471.3 492.7 514.2 490.3C557 488 600 490 642.8 491.2C685.7 492.3 728.3 492.7 771.2 491.8C814 491 857 489 878.5 488L900 487L900 601L878.5 601C857 601 814 601 771.2 601C728.3 601 685.7 601 642.8 601C600 601 557 601 514.2 601C471.3 601 428.7 601 385.8 601C343 601 300 601 257.2 601C214.3 601 171.7 601 128.8 601C86 601 43 601 21.5 601L0 601Z" fill="#0c3f64"></path><path d="M0 570L21.5 563C43 556 86 542 128.8 538.7C171.7 535.3 214.3 542.7 257.2 547.8C300 553 343 556 385.8 553.7C428.7 551.3 471.3 543.7 514.2 543.5C557 543.3 600 550.7 642.8 550.5C685.7 550.3 728.3 542.7 771.2 543.2C814 543.7 857 552.3 878.5 556.7L900 561L900 601L878.5 601C857 601 814 601 771.2 601C728.3 601 685.7 601 642.8 601C600 601 557 601 514.2 601C471.3 601 428.7 601 385.8 601C343 601 300 601 257.2 601C214.3 601 171.7 601 128.8 601C86 601 43 601 21.5 601L0 601Z" fill="#061e3c"></path></svg>