<svg id="visual" viewBox="0 0 900 300" width="900" height="300" xmlns="http://www.w3.org/2000/svg" xmlns:xlink="http://www.w3.org/1999/xlink" version="1.1"><path d="M0 149L21.5 158.8C43 168.7 86 188.3 128.8 194C171.7 199.7 214.3 191.3 257.2 186.2C300 181 343 179 385.8 179.2C428.7 179.3 471.3 181.7 514.2 179.2C557 176.7 600 169.3 642.8 170.7C685.7 172 728.3 182 771.2 180.2C814 178.3 857 164.7 878.5 157.8L900 151L900 301L878.5 301C857 301 814 301 771.2 301C728.3 301 685.7 301 642.8 301C600 301 557 301 514.2 301C471.3 301 428.7 301 385.8 301C343 301 300 301 257.2 301C214.3 301 171.7 301 128.8 301C86 301 43 301 21.5 301L0 301Z" fill="#00b4d8"></path><path d="M0 213L21.5 215.2C43 217.3 86 221.7 128.8 218.3C171.7 215 214.3 204 257.2 203.7C300 203.3 343 213.7 385.8 213.3C428.7 213 471.3 202 514.2 199.7C557 197.3 600 203.7 642.8 201.7C685.7 199.7 728.3 189.3 771.2 186.8C814 184.3 857 189.7 878.5 192.3L900 195L900 301L878.5 301C857 301 814 301 771.2 301C728.3 301 685.7 301 642.8 301C600 301 557 301 514.2 301C471.3 301 428.7 301 385.8 301C343 301 300 301 257.2 301C214.3 301 171.7 301 128.8 301C86 301 43 301 21.5 301L0 301Z" fill="#008ab3"></path><path d="M0 237L21.5 236.8C43 236.7 86 236.3 128.8 233C171.7 229.7 214.3 223.3 257.2 223.3C300 223.3 343 229.7 385.8 230C428.7 230.3 471.3 224.7 514.2 221.5C557 218.3 600 217.7 642.8 218.5C685.7 219.3 728.3 221.7 771.2 222.2C814 222.7 857 221.3 878.5 220.7L900 220L900 301L878.5 301C857 301 814 301 771.2 301C728.3 301 685.7 301 642.8 301C600 301 557 301 514.2 301C471.3 301 428.7 301 385.8 301C343 301 300 301 257.2 301C214.3 301 171.7 301 128.8 301C86 301 43 301 21.5 301L0 301Z" fill="#0a638c"></path><path d="M0 260L21.5 259.5C43 259 86 258 128.8 258.5C171.7 259 214.3 261 257.2 257.5C300 254 343 245 385.8 240C428.7 235 471.3 234 514.2 233.2C557 232.3 600 231.7 642.8 235.7C685.7 239.7 728.3 248.3 771.2 251.3C814 254.3 857 251.7 878.5 250.3L900 249L900 301L878.5 301C857 301 814 301 771.2 301C728.3 301 685.7 301 642.8 301C600 301 557 301 514.2 301C471.3 301 428.7 301 385.8 301C343 301 300 301 257.2 301C214.3 301 171.7 301 128.8 301C86 301 43 301 21.5 301L0 301Z" fill="#0c3f64"></path><path d="M0 262L21.5 261.8C43 261.7 86 261.3 128.8 260.5C171.7 259.7 214.3 258.3 257.2 260.8C300 263.3 343 269.7 385.8 273.2C428.7 276.7 471.3 277.3 514.2 278.2C557 279 600 280 642.8 280C685.7 280 728.3 279 771.2 277.7C814 276.3 857 274.7 878.5 273.8L900 273L900 301L878.5 301C857 301 814 301 771.2 301C728.3 301 685.7 301 642.8 301C600 301 557 301 514.2 301C471.3 301 428.7 301 385.8 301C343 301 300 301 257.2 301C214.3 301 171.7 301 128.8 301C86 301 43 301 21.5 301L0 301Z" fill="#061e3c"></path></svg>