<svg id="visual" viewBox="0 0 900 600" width="900" height="600" xmlns="http://www.w3.org/2000/svg" xmlns:xlink="http://www.w3.org/1999/xlink" version="1.1"><path d="M0 400L129 379L257 399L386 429L514 415L643 425L771 408L900 380L900 601L771 601L643 601L514 601L386 601L257 601L129 601L0 601Z" fill="#00b4d8"></path><path d="M0 439L129 407L257 435L386 450L514 412L643 440L771 477L900 433L900 601L771 601L643 601L514 601L386 601L257 601L129 601L0 601Z" fill="#038cb5"></path><path d="M0 468L129 439L257 504L386 493L514 460L643 467L771 456L900 468L900 601L771 601L643 601L514 601L386 601L257 601L129 601L0 601Z" fill="#0e668f"></path><path d="M0 493L129 516L257 483L386 534L514 543L643 481L771 531L900 489L900 601L771 601L643 601L514 601L386 601L257 601L129 601L0 601Z" fill="#104368"></path><path d="M0 536L129 562L257 537L386 552L514 554L643 543L771 544L900 547L900 601L771 601L643 601L514 601L386 601L257 601L129 601L0 601Z" fill="#0a2342"></path></svg>